<svg xmlns="http://www.w3.org/2000/svg" enable-background="new 0 0 100 100" viewBox="0 0 100 100"><path fill="#fff" d="M78.28,69.792C78.28,85.346,65.592,98,50,98c-1.022,0-2.024-0.051-3.026-0.163
		c-10.582-1.144-19.815-8.221-23.526-18.322c-1.605-4.361,0.573-9.212,4.867-10.836c0.961-0.368,1.943-0.541,2.904-0.541
		c3.364,0,6.523,2.094,7.77,5.484c1.667,4.504,6.083,7.537,11.012,7.537c6.441,0,11.686-5.096,11.686-11.367
		c0-3.013-1.421-5.954-3.906-8.068c-2.893-2.461-7.484-3.217-12.361-4.014c-9.11-1.511-16.39-6.628-20.479-14.41
		c-2.106-4.014-3.221-8.538-3.221-13.093c0-14.512,11.052-26.502,25.203-28.034C47.935,2.061,48.957,2,50,2
		c12.106,0,22.862,7.67,26.767,19.088c1.513,4.402-0.787,9.191-5.112,10.723c-0.9,0.317-1.82,0.47-2.72,0.47
		c-1.063,0-2.096-0.204-3.067-0.592c-2.157-0.878-3.957-2.666-4.775-5.076c-1.595-4.647-6.053-7.772-11.093-7.772
		c-6.441,0-11.686,5.096-11.686,11.367c0,1.797,0.44,3.585,1.278,5.168c1.636,3.125,4.499,5.045,8.496,5.709
		c0.624,0.102,1.258,0.204,1.912,0.317c5.838,1.001,12.699,2.523,18.445,7.425C74.702,54.146,78.28,61.786,78.28,69.792z"/><path fill="#d7f4ff" d="M72.187,69.792c0,14.523-11.052,26.512-25.213,28.044c-10.582-1.144-19.815-8.221-23.526-18.322
		c-1.605-4.361,0.573-9.212,4.867-10.836c0.961-0.368,1.943-0.541,2.904-0.541c3.364,0,6.523,2.094,7.77,5.484
		c1.667,4.504,6.083,7.537,11.012,7.537c6.441,0,11.686-5.096,11.686-11.367c0-3.013-1.421-5.954-3.906-8.068
		c-2.893-2.461-7.484-3.217-12.361-4.014c-9.11-1.511-16.39-6.628-20.479-14.41c-2.106-4.014-3.221-8.538-3.221-13.093
		c0-14.512,11.052-26.502,25.203-28.034C57.77,3.317,67.095,10.63,70.674,21.088c1.462,4.3-0.685,8.967-4.805,10.601
		c-2.157-0.878-3.957-2.666-4.775-5.076c-1.595-4.647-6.053-7.772-11.093-7.772c-6.441,0-11.686,5.096-11.686,11.367
		c0,1.797,0.44,3.585,1.278,5.168c1.636,3.125,4.499,5.045,8.496,5.709c0.624,0.102,1.258,0.204,1.912,0.317v1.287
		c4.192,1.103,8.517,2.87,12.351,6.138C68.598,54.146,72.187,61.786,72.187,69.792z"/><path d="M50,99.5c-12.446,0-23.683-7.823-27.961-19.468c-1.886-5.122,0.691-10.845,5.745-12.757
		c1.105-0.423,2.263-0.638,3.434-0.638c4.067,0,7.756,2.599,9.179,6.467c1.45,3.919,5.311,6.555,9.604,6.555
		c5.617,0,10.187-4.427,10.187-9.867c0-2.575-1.231-5.1-3.378-6.925c-2.585-2.199-6.979-2.917-11.63-3.676
		c-9.597-1.593-17.254-6.987-21.566-15.192c-0.197-0.364-0.385-0.757-0.571-1.148c-0.355-0.748-0.052-1.673,0.695-2.028
		c0.746-0.355,1.629-0.069,1.985,0.68c0.192,0.403,0.355,0.748,0.537,1.083c3.874,7.372,10.763,12.212,19.406,13.646
		c5.072,0.827,9.867,1.61,13.088,4.351c2.817,2.396,4.434,5.753,4.434,9.21c0,7.095-5.915,12.867-13.187,12.867
		c-5.543,0-10.533-3.423-12.418-8.517c-0.992-2.695-3.549-4.505-6.364-4.505c-0.804,0-1.6,0.148-2.368,0.442
		c-3.524,1.333-5.314,5.332-3.995,8.916C28.701,89.466,38.806,96.5,50,96.5c14.767,0,26.78-11.981,26.78-26.708
		c0-7.568-3.393-14.794-9.308-19.824c-6.077-5.177-13.591-6.412-19.628-7.403c-4.493-0.746-7.717-2.931-9.582-6.494
		c-0.947-1.787-1.449-3.816-1.449-5.862c0-7.095,5.915-12.867,13.187-12.867c5.68,0,10.708,3.53,12.513,8.784
		c0.948,2.787,3.529,4.656,6.423,4.656c0.748,0,1.496-0.13,2.223-0.385c3.549-1.258,5.43-5.215,4.19-8.821
		C71.65,10.763,61.463,3.5,50,3.5c-9.227,0-17.689,4.66-22.638,12.467c-0.443,0.701-1.372,0.907-2.069,0.464
		c-0.7-0.443-0.907-1.37-0.464-2.069C30.33,5.682,39.739,0.5,50,0.5c12.746,0,24.073,8.078,28.187,20.103
		c1.771,5.153-0.934,10.816-6.03,12.623c-1.051,0.369-2.133,0.556-3.221,0.556c-4.179,0-7.9-2.687-9.262-6.686
		c-1.387-4.039-5.275-6.755-9.674-6.755c-5.617,0-10.187,4.427-10.187,9.867c0,1.559,0.382,3.103,1.104,4.465
		c1.409,2.691,3.903,4.349,7.416,4.932c6.402,1.052,14.372,2.361,21.084,8.079c6.586,5.6,10.363,13.658,10.363,22.108
		C79.78,86.173,66.421,99.5,50,99.5z"/><path d="M21.901,34.904c-0.752,0-1.4-0.563-1.488-1.329c-0.128-1.116-0.193-2.25-0.193-3.367c0-2.249,0.254-4.479,0.755-6.631
		c0.188-0.807,0.993-1.309,1.801-1.121s1.309,0.994,1.121,1.801c-0.449,1.929-0.677,3.931-0.677,5.951
		c0,1.004,0.059,2.021,0.174,3.025c0.095,0.822-0.496,1.566-1.319,1.661C22.017,34.901,21.959,34.904,21.901,34.904z"/></svg>