<svg xmlns="http://www.w3.org/2000/svg" enable-background="new 0 0 100 100" viewBox="0 0 100 100"><path fill="#fff" d="M97.089,14.948L57.516,92.584c-1.43,2.81-4.34,4.578-7.516,4.578c-1.123,0-2.196-0.215-3.196-0.634
		c-1.838-0.736-3.391-2.126-4.32-3.945L2.911,14.948C0.807,10.83,2.472,5.812,6.628,3.737c4.146-2.085,9.212-0.429,11.315,3.679
		L50,70.306L82.057,7.416c0.96-1.86,2.512-3.219,4.32-3.945c2.185-0.899,4.728-0.879,6.995,0.266
		C97.528,5.812,99.193,10.83,97.089,14.948z"/><path fill="#d7f4ff" d="M90.686,14.948L51.113,92.584c-0.929,1.819-2.471,3.199-4.31,3.945
		c-1.838-0.736-3.391-2.126-4.32-3.945L2.911,14.948C0.807,10.83,2.472,5.812,6.628,3.737c4.146-2.085,9.212-0.429,11.315,3.679
		L50,70.306L82.057,7.416c0.96-1.86,2.512-3.219,4.32-3.945c0.204,0.082,0.398,0.164,0.592,0.266
		C91.115,5.812,92.78,10.83,90.686,14.948z"/><path d="M26.278,62.281c-0.545,0-1.072-0.299-1.337-0.818l-4.32-8.462c-0.377-0.737-0.084-1.641,0.654-2.018
		c0.737-0.376,1.642-0.083,2.018,0.654l4.32,8.462c0.377,0.737,0.084,1.641-0.654,2.018C26.741,62.229,26.507,62.281,26.278,62.281z
		"/><path d="M50,98.662c-3.767,0-7.159-2.068-8.853-5.397L28.913,69.271c-0.376-0.738-0.083-1.642,0.655-2.018
		c0.736-0.377,1.641-0.084,2.018,0.654L43.82,91.902c1.18,2.319,3.548,3.76,6.18,3.76s5-1.44,6.179-3.759l39.574-77.637
		c0.831-1.627,0.975-3.474,0.407-5.203c-0.574-1.742-1.801-3.157-3.458-3.984c-3.406-1.712-7.581-0.356-9.311,3.021L51.336,70.987
		c-0.256,0.502-0.772,0.818-1.336,0.818s-1.08-0.316-1.336-0.818L16.607,8.098c-1.729-3.376-5.905-4.73-9.305-3.021
		C5.642,5.906,4.414,7.321,3.84,9.063c-0.568,1.729-0.424,3.576,0.406,5.202l15.074,29.565c0.376,0.738,0.083,1.642-0.655,2.018
		c-0.736,0.376-1.642,0.083-2.018-0.654L1.574,15.63c-1.197-2.344-1.404-5.009-0.583-7.504c0.826-2.509,2.59-4.544,4.967-5.73
		c4.864-2.449,10.842-0.502,13.32,4.337L50,67.003L80.72,6.734c2.479-4.84,8.456-6.787,13.326-4.337
		c2.374,1.185,4.138,3.22,4.963,5.729c0.821,2.495,0.613,5.16-0.584,7.505L58.853,93.266C57.159,96.594,53.767,98.662,50,98.662z"/></svg>