<svg xmlns="http://www.w3.org/2000/svg" enable-background="new 0 0 464 504.001" viewBox="0 0 464 504.001"><path fill="#ffc05a" d="M315.02 457.661c-6.38 21.93-6.97 39.5-7.02 42.34-3.94-3.85-15.2-14.41-32.74-23.7C289.94 472.991 303.7 466.751 315.02 457.661zM79.05 101.141h-.01c-34.56 16.34-66.84 14.27-75.04 13.57 4 2.86 39.15 28.87 40.24 75.29 1.14 49.13-36.9 77.33-40.24 79.71 4.03 1.46 33.55 12.64 44.71 44.29 13.3 37.74-12.01 69.17-13.42 70.86 4.24-.66 42.44-5.95 71.53 22.14 33.4 32.26 22.86 77.69 22.36 79.71 7.85-5.69 29.51-20.15 60.72-25 56.35-12.503 93.344-35.818 106.98-72.18C275.693 245.987 204.451 148.596 79.05 101.141z"/><path fill="#ffc05a" d="M415.29,278.571c5.51-43,40.59-64.05,44.71-66.43c-5.25-1.37-52-14.49-71.53-62
			c-18.14-44.14,1.57-83.07,4.47-88.57c-6.2,1.21-37.85,6.76-67.06-13.28c-19.95-13.7-28.32-32.16-31.29-39.86
			c-4.5,4.25-30.96,28.4-71.53,26.57c-38.92-1.76-62.56-26.16-67.06-31c-1.86,8.47-7.51,30.5-23.93,53.14v202.692l63.589-45.832
			c-30.549,121.519,19.76,183.01,153.1,182.86h0.01c7.36-7.71,16.04-14.82,26.29-20.86c28.1-16.55,56.25-18.12,71.53-17.71
			C443.89,355.991,409.29,325.471,415.29,278.571z"/><path fill="#524956" d="M212.92 309.291c-2.58 6-5.16 12-7.74 18-10.44 2.95-20.87 5.9-31.3 8.85-9.004-30.249-1.408-51.472 27.09-61.33C210.508 281.995 216.8 293.104 212.92 309.291zM299.06 52.711c2.98 11.81 5.96 23.62 8.94 35.43-10.95 25.47-21.9 50.95-32.86 76.42-7.002 13.995-18.357 15.286-30.67 11.75C226.706 121.455 252.012 82.955 299.06 52.711zM173.88 66.001c0 34.32 0 68.64 0 102.97 3.269 31.845-8.234 53.281-26.82 69.74-23.712-59.824-29.038-120.188 0-181.57C156 60.101 164.94 63.051 173.88 66.001z"/><path fill="#655f68" d="M218.59,52.711c-14.91,38.75-29.81,77.51-44.71,116.26c-8.94,23.25-17.88,46.49-26.82,69.74
			c0-60.52,0-121.04,0-181.57c-5,0-9.99,0-14.99,0c-18.85,0-37.7,0-56.54,0c1.17,14.67,2.35,29.33,3.52,44
			c6.28,78.33,12.55,156.67,18.83,235h76l27.09-61.33l43.5-98.5l54.59-123.6H218.59z"/><path fill="#c43b58" d="M267.76 219.921c-22.635-7.399-31.225 18.881-8.59 26.28 8.72-7.94 23.42-10.1 35.42-4.11 11.48 5.72 18.51 17.92 17.88 31 10.884-7.381 15.472-15.945 8.94-26.6C341.804 205.312 288.154 178.742 267.76 219.921zM339.29 414.781c-85.116 30.254-146.251 9.447-187.76-53.15l-8.94 26.6c1.23 6.3 10.24 48.83 47.31 73.48 3.37 2.25 6.97 4.34 10.81 6.24 22.68 11.22 49.91 13.91 74.55 8.35 14.68-3.31 28.44-9.55 39.76-18.64 5.82-4.68 11-10.11 15.33-16.29 7.1-10.12 12.08-22.48 14.34-35.49C343.06 409.001 341.26 411.971 339.29 414.781zM209.65 242.301c6.681-2.376 7.531-6.81 1.02-12.57-9.14 16.77-9.99 33.26-9.96 39.17.01 1.87.09 3.84.26 5.91.85 9.99 3.92 22.14 11.95 34.48 3.66 5.63 8.34 11.29 14.32 16.81 10.44 9.65 22.27 16.68 33.71 23.48 14.79 8.78 28.75 17.07 33.41 27.45 1.63 3.63 2.45 7.96 2.52 12.5 17.129-6.014 18.63-19.346 6.42-39.1C310.27 322.029 276.583 285.491 209.65 242.301z"/><path fill="#d14b62" d="M370.61,246.491l-8.94,26.6h-49.2l8.94-26.6C335.606,231.089,352.485,234.434,370.61,246.491z"/><path fill="#e15c63" d="M296.88,389.531c0.73-0.81,1.4-1.66,2.02-2.54c7.11-10.15,9.05-26.21,4.4-36.56
			c-4.65-10.37-18.62-18.67-33.4-27.45c-11.45-6.8-23.28-13.83-33.72-23.48c-21.79-20.13-26.46-42.22-26.53-57.2
			c-0.01-2.53,0.14-6.98,1.02-12.57c1.97-12.4,7.58-30.35,23.15-45.06c3.3-3.12,6.87-5.91,10.65-8.36
			c9.25-5.99,19.75-9.94,30.67-11.75c16.85-2.79,34.71-0.46,50.5,7.42c28.14,14.03,45.6,43.09,44.97,74.51h-49.2
			c0.63-13.08-6.4-25.28-17.88-31c-12.16-6.06-27.09-3.77-35.77,4.43c-8.83,8.34-8.94,20.68-8.94,22.14
			c0.01,1.43,0.12,2.81,0.35,4.14c5.21,31.61,68.09,37.7,89.07,84.43c9.34,20.82,8.52,45.56,0.52,66.23
			c-1.2,3.11-2.56,6.12-4.07,9.02c-1.63,3.12-3.43,6.09-5.4,8.9c-26.89,38.37-86.5,47.92-129.64,26.57
			c-46.18-22.86-56.78-72.85-58.12-79.72h50.87c3.73,10.7,12.08,27.65,29.23,36.14C253.23,408.461,283.72,404.311,296.88,389.531z"/><path fill="#3a322b" d="M396.152,59.186c-0.919-1.236-2.464-1.835-3.979-1.54c-8.321,1.629-37.531,5.527-64.027-12.657
		c-17.028-11.687-25.619-27.116-29.827-38.002c-0.48-1.242-1.548-2.165-2.848-2.459c-1.297-0.294-2.66,0.078-3.629,0.992
		c-6.779,6.399-31.75,27.179-68.604,25.484c-35.488-1.604-58.197-23.16-64.312-29.729c-1.013-1.088-2.549-1.527-3.981-1.133
		c-1.435,0.392-2.534,1.547-2.853,2.999c-2.739,12.454-8.81,31.092-22.107,50.002H75.53c-1.116,0-2.182,0.467-2.939,1.287
		c-0.757,0.82-1.137,1.92-1.048,3.032l3.301,41.201c-30.515,13.677-59.33,13.018-70.503,12.065
		c-1.802-0.149-3.472,0.912-4.094,2.604c-0.623,1.691-0.037,3.59,1.43,4.637c3.838,2.739,37.53,28.039,38.56,72.124
		c1.09,46.674-34.5,73.464-38.561,76.365c-1.21,0.864-1.841,2.329-1.638,3.803s1.208,2.712,2.608,3.216
		c5.267,1.896,32.058,12.823,42.288,41.852c12.669,35.95-11.669,65.717-12.711,66.966c-1.066,1.279-1.229,3.084-0.409,4.533
		c0.82,1.448,2.447,2.238,4.097,1.981c4.082-0.637,40.675-5.45,68.135,21.067c32.056,30.957,21.363,75.418,21.251,75.863
		c-0.409,1.632,0.246,3.345,1.639,4.287c0.678,0.458,1.459,0.687,2.241,0.687c0.824,0,1.648-0.254,2.347-0.761
		c16.731-12.122,37.099-20.616,57.514-24.034c3.111,2.001,6.404,3.883,9.895,5.611c15.345,7.596,33.185,11.549,51.113,11.549
		c7.486,0,14.988-0.689,22.328-2.09c0.754-0.144,1.492-0.319,2.239-0.476c11.33,6.144,21.89,13.841,30.593,22.348
		c0.762,0.745,1.771,1.14,2.797,1.14c0.511,0,1.026-0.098,1.517-0.299c1.477-0.605,2.452-2.031,2.482-3.627
		c0.057-3.101,0.646-19.385,6.524-40.113c5.789-4.796,10.87-10.249,15.105-16.291c7.311-10.433,12.441-23.007,14.87-36.4
		c1.396-2.69,2.656-5.452,3.778-8.272c7.362-7.604,15.699-14.185,24.811-19.55c25.535-15.037,51.829-17.642,69.393-17.162
		c1.692,0.072,3.235-0.983,3.842-2.567c0.607-1.584,0.149-3.378-1.142-4.478c-1.46-1.243-35.706-30.972-29.919-76.161
		c5.108-39.889,36.497-59.871,42.737-63.472c1.405-0.811,2.181-2.39,1.965-3.997c-0.216-1.608-1.381-2.926-2.951-3.337
		c-5.084-1.332-50.211-14.323-68.843-59.651c-16.945-41.224,0.616-78.19,4.308-85.183C397.198,62.078,397.071,60.423,396.152,59.186
		z M143.059,61.144v177.571c0,1.928,1.375,3.581,3.27,3.933c1.892,0.353,3.771-0.697,4.463-2.497l70.543-183.436h71.584
		l-51.637,116.918c-3.605,2.413-7.023,5.122-10.205,8.127c-16.086,15.198-22.061,33.659-24.232,46.651
		c-9.233,17.272-10.171,34.05-10.139,40.512c0.008,1.649,0.073,3.383,0.202,5.184l-25.632,58.037h-69.702l-21.712-271H143.059z
		 M169.883,68.893v99.33l-18.824,48.948V62.676L169.883,68.893z M298.024,64.96l5.766,22.849l-31.483,73.223
		c-6.708,1.284-13.245,3.342-19.433,6.158L298.024,64.96z M317.422,245.806l-3.79,11.273c-3.315-7.951-9.337-14.619-17.259-18.57
		c-10.645-5.308-23.377-5.06-33.307,0.148c0.525-4.069,2.189-10.863,7.445-15.83c7.76-7.33,20.896-8.911,31.233-3.756
		C311.676,224.023,317.782,234.479,317.422,245.806z M324.287,250.491h40.76l-6.252,18.598h-40.759L324.287,250.491z
		 M325.377,242.491c-0.821-13.044-8.387-24.758-20.062-30.58c-13.235-6.599-30.182-4.455-40.296,5.101
		c-9.776,9.235-10.207,22.505-10.194,25.071c0.1,19.854,18.665,30.882,38.319,42.558c19.213,11.412,40.99,24.348,51.444,47.632
		c10.954,24.397,7.431,57.381-8.568,80.208c-24.528,34.997-81.586,46.574-124.597,25.283c-37.989-18.806-51.089-57.041-54.891-72.13
		h43.079c4.126,10.66,13.001,27.187,30.247,35.724c24.812,12.282,59.282,6.53,72.319-12.066
		c7.978-11.385,10.032-28.795,4.777-40.499c-5.175-11.527-19.669-20.136-35.029-29.26c-11.261-6.69-22.905-13.608-33.031-22.966
		c-20.734-19.161-25.172-40.095-25.244-54.281c-0.038-7.718,1.504-34.474,22.924-54.711c22.657-21.403,58.55-26.346,87.283-12.016
		c25.398,12.665,41.854,38.64,42.735,66.933H325.377z M208.41,309.64l-6.156,14.317l-21.276,6.021l18.324-41.49
		C201.081,295.207,203.95,302.379,208.41,309.64z M204.707,268.883c-0.015-3.117,0.23-8.899,1.718-15.978
		c2.073,14.648,8.884,32.76,27.037,49.536c10.745,9.93,22.758,17.066,34.391,23.979c14.225,8.449,27.662,16.431,31.801,25.649
		c3.172,7.064,2.744,17.545-0.589,26.067c-0.315-0.951-0.661-1.873-1.054-2.747c-5.175-11.526-19.667-20.135-35.039-29.266
		c-11.258-6.688-22.898-13.604-33.021-22.959C209.215,304.003,204.778,283.069,204.707,268.883z M134.614,478.224
		c1.714-15.922,1.299-48.691-25.011-74.1c-23.123-22.331-51.353-24.643-66.102-24.036c7.493-12.12,19.39-37.869,8.978-67.416
		c-9.056-25.698-29.661-38.678-40.747-44.011c11.822-10.22,37.472-37.251,36.502-78.754c-0.823-35.225-20.15-59.001-32.637-70.74
		c14.506-0.038,36.623-2.181,59.921-12.074l18.377,229.37c0.167,2.079,1.902,3.681,3.987,3.681h76c0.374,0,0.739-0.056,1.088-0.155
		l0.001,0.004l31.294-8.856c1.16-0.328,2.109-1.161,2.585-2.269l4.934-11.475c3.042,3.914,6.59,7.816,10.736,11.648
		c10.742,9.928,22.751,17.062,34.395,23.979c14.224,8.449,27.659,16.43,31.797,25.647c1.178,2.624,1.898,5.822,2.108,9.323
		c-12.476,12.43-40.199,15.71-59.417,6.197c-16.223-8.031-24.022-24.667-27.228-33.869c-0.56-1.607-2.075-2.685-3.777-2.685h-50.87
		c-1.195,0-2.328,0.534-3.087,1.457c-0.314,0.381-0.53,0.818-0.684,1.275l-0.021-0.007l-8.941,26.599
		c-0.221,0.657-0.267,1.36-0.134,2.04c1.613,8.27,10.395,45.382,41.484,70.498C161.172,463.719,145.835,471.18,134.614,478.224z
		 M304.517,491.389c-5.806-4.99-12.188-9.624-18.913-13.762c8.227-2.619,15.881-6.12,22.81-10.417
		C306.166,477.049,305.059,485.478,304.517,491.389z M327.078,439.079c-24.527,34.995-81.586,46.574-124.597,25.282
		c-41.728-20.657-53.427-64.757-55.759-75.871l4.354-12.952c6.18,19.099,21.512,51.928,56.797,69.396
		c15.345,7.596,33.184,11.549,51.112,11.549c7.486,0,14.989-0.689,22.329-2.091c20.966-4.002,39.103-13.335,52.364-26.719
		C331.769,431.71,329.562,435.534,327.078,439.079z M384.771,151.664c16.089,39.142,49.476,55.72,66.022,61.751
		c-12.5,9.103-35.029,29.998-39.467,64.649c-4.747,37.073,14.429,64.057,25.569,76.284c-17.885,0.695-41.127,4.815-63.867,18.206
		c-5.69,3.351-11.089,7.156-16.173,11.351c4.008-18.587,2.503-38.263-4.971-54.911c-11.49-25.593-34.423-39.215-54.656-51.233
		c-16.676-9.905-30.299-18.003-33.623-30.023c7.883-5.83,19.774-6.768,29.198-2.071c10.076,5.025,16.228,15.713,15.672,27.229
		c-0.053,1.093,0.344,2.159,1.099,2.952c0.755,0.792,1.802,1.24,2.896,1.24h49.199c1.718,0,3.244-1.097,3.792-2.726l8.941-26.598
		l-0.017-0.006c0.127-0.377,0.216-0.771,0.224-1.189c0.655-32.868-17.866-63.553-47.185-78.173
		c-14.357-7.158-30.343-9.929-45.866-8.633l30.115-70.041c0.347-0.808,0.418-1.707,0.204-2.559l-8.941-35.429l-0.006,0.002
		c-0.107-0.422-0.276-0.832-0.52-1.207c-0.738-1.133-1.999-1.816-3.352-1.816h-80.47c-1.655,0-3.139,1.02-3.733,2.564
		l-36.973,96.141V66.001c0-1.726-1.107-3.257-2.746-3.798l-26.823-8.857l-0.005,0.017c-0.395-0.131-0.81-0.219-1.249-0.219h-7.402
		c9.809-15.135,15.38-29.832,18.535-41.341c11.188,10.294,33.088,25.767,64.687,27.194c1.535,0.069,3.045,0.103,4.542,0.103
		c31.992-0.002,55.146-15.354,65.644-24.007c5.199,11.327,14.431,25.426,30.556,36.492c23.409,16.065,48.114,16.629,62.536,15.053
		C379.861,81.576,369.724,115.057,384.771,151.664z"/></svg>